<svg width="168" height="168" viewBox="0 0 168 168" fill="none" xmlns="http://www.w3.org/2000/svg">
<path fill-rule="evenodd" clip-rule="evenodd" d="M28 14C20.268 14 14 20.268 14 28V63C14 70.732 20.268 77 28 77H63C70.732 77 77 70.732 77 63V28C77 20.268 70.732 14 63 14H28ZM28 28H63V63H28V28Z" fill="white"/>
<path fill-rule="evenodd" clip-rule="evenodd" d="M105 14C97.268 14 91 20.268 91 28V63C91 70.732 97.268 77 105 77H140C147.732 77 154 70.732 154 63V28C154 20.268 147.732 14 140 14H105ZM105 28H140V63H105V28Z" fill="white"/>
<path fill-rule="evenodd" clip-rule="evenodd" d="M91 105C91 97.268 97.268 91 105 91H140C147.732 91 154 97.268 154 105V140C154 147.732 147.732 154 140 154H105C97.268 154 91 147.732 91 140V105ZM140 105H105V140H140V105Z" fill="white"/>
<path fill-rule="evenodd" clip-rule="evenodd" d="M28 91C20.268 91 14 97.268 14 105V140C14 147.732 20.268 154 28 154H63C70.732 154 77 147.732 77 140V105C77 97.268 70.732 91 63 91H28ZM28 105H63V140H28V105Z" fill="white"/>
</svg>
