<svg width="168" height="168" viewBox="0 0 168 168" fill="none" xmlns="http://www.w3.org/2000/svg">
<path fill-rule="evenodd" clip-rule="evenodd" d="M80.3214 8.04545C82.3851 6.77001 84.9621 6.65406 87.132 7.73902L143.132 35.739C145.504 36.9248 147.002 39.3486 147.002 42C147.002 44.6514 145.504 47.0753 143.132 48.261L91.0015 74.3262V91C91.0015 94.866 87.8675 98 84.0015 98C80.1355 98 77.0015 94.866 77.0015 91V70.1517C76.9995 70.054 76.9995 69.9565 77.0015 69.8592V14C77.0015 11.574 78.2577 9.3209 80.3214 8.04545ZM91.0015 58.6738L124.349 42L91.0015 25.3262V58.6738Z" fill="white"/>
<path d="M62.2743 31.4775C63.988 34.9429 62.5678 39.1414 59.1024 40.855C49.4849 45.6108 41.4361 53.0292 35.9134 62.2277C30.3908 71.4262 27.6268 82.0176 27.9503 92.7417C28.2738 103.466 31.6712 113.871 37.7383 122.72C43.8054 131.569 52.2868 138.489 62.1734 142.656C72.06 146.824 82.9357 148.063 93.5065 146.227C104.077 144.392 113.898 139.558 121.801 132.301C129.704 125.044 135.355 115.67 138.084 105.294C140.812 94.9176 140.502 83.9759 137.191 73.7706C135.998 70.0933 138.012 66.1451 141.689 64.952C145.367 63.7589 149.315 65.7727 150.508 69.45C154.647 82.2066 155.034 95.8837 151.624 108.854C148.213 121.825 141.148 133.542 131.27 142.613C121.392 151.684 109.115 157.726 95.9019 160.021C82.6884 162.316 69.0938 160.766 56.7355 155.557C44.3773 150.348 33.7755 141.698 26.1917 130.637C18.6078 119.576 14.361 106.569 13.9566 93.1638C13.5523 79.7587 17.0072 66.5194 23.9106 55.0213C30.8139 43.5232 40.875 34.2502 52.8968 28.3055C56.3622 26.5919 60.5607 28.012 62.2743 31.4775Z" fill="white"/>
<path d="M61.5963 74.2049C63.9183 71.1139 63.295 66.7258 60.204 64.4037C57.1131 62.0817 52.725 62.705 50.4029 65.796C46.1937 71.3989 43.4534 77.9661 42.4317 84.8992C41.41 91.8322 42.1393 98.9107 44.5532 105.49C46.9671 112.069 50.9889 117.939 56.2521 122.566C61.5153 127.193 67.8527 130.43 74.6868 131.981C81.5209 133.532 88.6345 133.348 95.3795 131.447C102.124 129.545 108.286 125.986 113.304 121.094C118.321 116.201 122.035 110.131 124.106 103.437C126.178 96.7418 126.541 89.6351 125.163 82.764C124.403 78.9734 120.714 76.5169 116.923 77.2771C113.133 78.0373 110.676 81.7263 111.436 85.5169C112.355 90.0976 112.113 94.8354 110.732 99.2986C109.351 103.762 106.875 107.809 103.53 111.07C100.185 114.332 96.0773 116.704 91.5806 117.972C87.084 119.24 82.3416 119.362 77.7855 118.328C73.2294 117.294 69.0045 115.136 65.4957 112.052C61.9869 108.967 59.3057 105.053 57.6964 100.667C56.0872 96.2813 55.601 91.5623 56.2821 86.9403C56.9633 82.3183 58.7901 77.9402 61.5963 74.2049Z" fill="white"/>
</svg>
