<svg width="168" height="168" viewBox="0 0 168 168" fill="none" xmlns="http://www.w3.org/2000/svg">
<path d="M63 42C63 38.134 66.134 35 70 35H98C101.866 35 105 38.134 105 42C105 45.866 101.866 49 98 49H70C66.134 49 63 45.866 63 42Z" fill="white"/>
<path d="M70 63C66.134 63 63 66.134 63 70C63 73.866 66.134 77 70 77H98C101.866 77 105 73.866 105 70C105 66.134 101.866 63 98 63H70Z" fill="white"/>
<path d="M63 98C63 94.134 66.134 91 70 91H98C101.866 91 105 94.134 105 98C105 101.866 101.866 105 98 105H70C66.134 105 63 101.866 63 98Z" fill="white"/>
<path d="M70 119C66.134 119 63 122.134 63 126C63 129.866 66.134 133 70 133H98C101.866 133 105 129.866 105 126C105 122.134 101.866 119 98 119H70Z" fill="white"/>
<path fill-rule="evenodd" clip-rule="evenodd" d="M133 56V28C133 22.4305 130.788 17.089 126.849 13.1508C122.911 9.21249 117.57 7 112 7H56C50.4305 7 45.089 9.21249 41.1508 13.1508C37.2125 17.089 35 22.4305 35 28V77H28C22.4305 77 17.089 79.2125 13.1508 83.1508C9.21249 87.089 7 92.4305 7 98V140C7 145.57 9.21249 150.911 13.1508 154.849C17.089 158.788 22.4305 161 28 161H140C145.57 161 150.911 158.788 154.849 154.849C158.788 150.911 161 145.57 161 140V77C161 71.4305 158.788 66.089 154.849 62.1508C150.911 58.2125 145.57 56 140 56H133ZM56 21C54.1435 21 52.363 21.7375 51.0503 23.0503C49.7375 24.363 49 26.1435 49 28V147H119V28C119 26.1435 118.262 24.363 116.95 23.0503C115.637 21.7375 113.857 21 112 21H56ZM133 70V147H140C141.857 147 143.637 146.262 144.95 144.95C146.263 143.637 147 141.857 147 140V77C147 75.1435 146.263 73.363 144.95 72.0503C143.637 70.7375 141.857 70 140 70H133ZM28 147H35V91H28C26.1435 91 24.363 91.7375 23.0503 93.0503C21.7375 94.363 21 96.1435 21 98V140C21 141.857 21.7375 143.637 23.0503 144.95C24.363 146.262 26.1435 147 28 147Z" fill="white"/>
</svg>
