<svg width="168" height="168" viewBox="0 0 168 168" fill="none" xmlns="http://www.w3.org/2000/svg">
<path d="M61.5503 68.5503C64.2839 65.8166 68.7161 65.8166 71.4497 68.5503L84 81.1005L96.5503 68.5503C99.2839 65.8166 103.716 65.8166 106.45 68.5503C109.183 71.2839 109.183 75.7161 106.45 78.4497L93.8995 91L106.45 103.55C109.183 106.284 109.183 110.716 106.45 113.45C103.716 116.183 99.2839 116.183 96.5503 113.45L84 100.899L71.4497 113.45C68.7161 116.183 64.2839 116.183 61.5503 113.45C58.8166 110.716 58.8166 106.284 61.5503 103.55L74.1005 91L61.5503 78.4497C58.8166 75.7161 58.8166 71.2839 61.5503 68.5503Z" fill="white"/>
<path fill-rule="evenodd" clip-rule="evenodd" d="M13.1508 20.1508C17.089 16.2125 22.4305 14 28 14H55.5462C59.0051 14.0179 62.4059 14.89 65.4467 16.5386C68.4681 18.1767 71.0411 20.5312 72.94 23.3952L78.6495 31.7507L78.7162 31.8501C79.3503 32.813 80.2125 33.6044 81.2261 34.1539C82.2353 34.7011 83.3634 34.9916 84.5112 35H140C145.57 35 150.911 37.2125 154.849 41.1508C158.788 45.089 161 50.4305 161 56V126C161 131.57 158.788 136.911 154.849 140.849C150.911 144.788 145.57 147 140 147H28C16.434 147 7 137.566 7 126V35C7 29.4305 9.21249 24.089 13.1508 20.1508ZM28 28C26.1435 28 24.363 28.7375 23.0503 30.0503C21.7375 31.363 21 33.1435 21 35V126C21 129.834 24.166 133 28 133H140C141.857 133 143.637 132.263 144.95 130.95C146.263 129.637 147 127.857 147 126V56C147 54.1435 146.263 52.363 144.95 51.0503C143.637 49.7375 141.857 49 140 49H84.4538C80.9949 48.9821 77.5941 48.11 74.5533 46.4614C71.5319 44.8233 68.9589 42.4688 67.06 39.6048L61.3505 31.2493L61.2838 31.1499C60.6497 30.187 59.7875 29.3956 58.7739 28.8461C57.7648 28.2989 56.6366 28.0084 55.4888 28H28Z" fill="white"/>
</svg>
