<svg width="168" height="168" viewBox="0 0 168 168" fill="none" xmlns="http://www.w3.org/2000/svg">
<path fill-rule="evenodd" clip-rule="evenodd" d="M67.2226 13.8811C69.4182 11.7064 72.0163 9.97954 74.8724 8.79721C77.7685 7.59828 80.8728 6.9829 84.0073 6.98634C90.1084 6.98755 96.2281 9.3264 100.88 13.9786L111.929 24.9863C112.834 24.6353 113.337 23.4576 113.661 22.6219C115.14 18.8268 117.543 15.4554 120.65 12.8218C123.757 10.1882 127.472 8.3708 131.458 7.53391C135.444 6.69703 139.576 6.8671 143.479 8.02876C147.383 9.19042 150.936 11.307 153.816 14.187C153.871 14.2427 153.926 14.299 153.979 14.356C156.774 17.2056 158.832 20.6959 159.971 24.5239C161.132 28.4277 161.302 32.5596 160.466 36.5457C159.629 40.5317 157.811 44.2463 155.178 47.3533C152.544 50.4603 149.177 52.8617 145.382 54.3402L145.373 54.3439C144.427 54.7108 143.728 55.1725 143.322 55.5694C143.09 55.7967 143.015 55.9356 142.995 55.9849L142.989 56.0034C142.984 56.0409 142.997 56.0942 143.037 56.1385L143.045 56.1465L154.021 67.1225C158.674 71.7758 161.013 77.8976 161.013 84.0002C161.013 90.1006 158.683 96.216 154.021 100.878L142.744 112.155C139.66 115.236 135.216 116.703 130.904 116.061C123.96 115.027 120.163 109.297 118.601 105.109L118.595 105.094C117.371 101.79 114.429 99.2317 110.987 98.4789C107.574 97.7323 103.865 98.8045 101.374 101.253L101.313 101.314C100.068 102.56 99.1551 104.099 98.6598 105.789C98.1644 107.48 98.1021 109.268 98.4785 110.989C98.8549 112.71 99.658 114.308 100.814 115.638C101.97 116.967 103.446 117.987 105.098 118.599C109.298 120.161 115.024 123.953 116.06 130.902C116.379 133.042 116.193 135.233 115.515 137.288C114.837 139.345 113.686 141.214 112.154 142.746L100.933 153.967L100.894 154.007C98.6776 156.23 96.0436 157.994 93.1434 159.197C90.2432 160.4 87.1339 161.017 83.9943 161.014C80.8613 161.016 77.7586 160.4 74.8641 159.201C71.9662 158 69.3341 156.239 67.1189 154.018L56.0738 143.014L56.0484 143.023C55.9702 143.049 55.7774 143.113 55.5711 143.324C55.1711 143.733 54.7072 144.438 54.3421 145.379C52.8635 149.174 50.4603 152.545 47.3533 155.179C44.2463 157.812 40.5317 159.63 36.5457 160.467C32.5596 161.304 28.4277 161.133 24.5239 159.972C20.671 158.825 17.1603 156.749 14.3005 153.926L14.1861 153.814C11.3061 150.934 9.18952 147.381 8.02786 143.478C6.86621 139.574 6.69613 135.442 7.53302 131.456C8.3699 127.47 10.1873 123.755 12.8209 120.648C15.4545 117.541 18.8259 115.138 22.621 113.659C24.1094 113.082 24.9277 112.066 24.9805 111.932L13.9777 100.878L13.9033 100.803C11.7199 98.6044 9.98619 96.0006 8.79988 93.1373C7.5992 90.2393 6.9829 87.1327 6.98634 83.9959C6.98755 77.8949 9.3264 71.7751 13.9786 67.1229L24.6606 56.4409C27.9048 53.1967 32.5087 51.6687 37.0597 52.3459C44.3122 53.4303 48.2936 59.4471 50.0237 63.7004C50.6778 65.302 51.7174 66.7172 53.0502 67.8201C54.3843 68.9241 55.9706 69.681 57.668 70.0234C59.3653 70.3658 61.1211 70.2831 62.7787 69.7828C64.4364 69.2824 65.9446 68.3798 67.169 67.1554L67.2121 67.1126C69.6317 64.6641 70.7193 61.029 70.0383 57.6537C69.6959 55.9563 68.939 54.3699 67.835 53.0359C66.7311 51.7019 65.3178 50.663 63.7144 50.009C59.461 48.2794 53.4461 44.304 52.3616 37.0501C51.6851 32.5041 53.2011 27.901 56.4559 24.6463L67.1309 13.9713C67.1612 13.9409 67.1918 13.9108 67.2226 13.8811ZM76.9505 23.9507C76.979 23.923 77.0074 23.895 77.0356 23.8668C78.8616 22.0376 81.4134 20.9831 83.9981 20.9863C86.5334 20.9863 89.0542 21.9515 90.9808 23.8781L101.957 34.8541C105.129 38.0259 109.632 39.5226 114.085 38.8568C121.18 37.7918 125.065 31.9348 126.71 27.6948C127.344 26.0683 128.371 24.6301 129.702 23.5014C131.034 22.3728 132.626 21.5939 134.334 21.2352C136.043 20.8765 137.813 20.9494 139.486 21.4473C141.111 21.9306 142.593 22.7995 143.807 23.979C143.842 24.0153 143.877 24.0513 143.913 24.087C145.147 25.3213 146.054 26.8438 146.552 28.5169C147.05 30.1899 147.123 31.9607 146.764 33.669C146.406 35.3774 145.627 36.9693 144.498 38.3009C143.37 39.6315 141.929 40.6601 140.304 41.2939C136.079 42.9341 130.208 46.8099 129.15 53.9115C128.475 58.375 129.975 62.8757 133.145 66.0465L133.196 66.0966L144.121 77.0219C146.048 78.9485 147.013 81.4649 147.013 84.0002C147.013 86.5378 146.053 89.0464 144.121 90.9785L132.951 102.259C132.379 101.8 131.966 100.879 131.719 100.221C130.292 96.3716 127.92 92.9429 124.822 90.2493C121.721 87.5533 117.992 85.6802 113.978 84.8022C109.964 83.9243 105.794 84.0697 101.851 85.2251C97.9078 86.3805 94.3185 88.5088 91.413 91.4142L91.3198 91.5092C88.4624 94.3979 86.3676 97.9522 85.2247 101.853C84.0693 105.796 83.9239 109.966 84.8018 113.98C85.6797 117.994 87.5528 121.723 90.2489 124.824C92.9449 127.925 96.3721 130.296 100.225 131.723C101.067 132.036 101.784 132.58 102.12 132.907L90.985 144.116L90.9405 144.161C90.0341 145.061 88.961 145.775 87.7809 146.265C86.5847 146.761 85.2945 147.015 83.9996 147.014C82.7063 147.016 81.4177 146.762 80.2229 146.267C79.0281 145.772 77.9429 145.046 77.0297 144.13L66.0465 133.146C64.4808 131.579 62.5697 130.401 60.4663 129.705C58.361 129.009 56.1169 128.817 53.9236 129.143C46.8282 130.208 42.9383 136.066 41.2935 140.306C40.6598 141.932 39.6325 143.37 38.3009 144.499C36.9693 145.628 35.3774 146.407 33.669 146.765C31.9607 147.124 30.1899 147.051 28.5169 146.553C26.8438 146.055 25.3212 145.148 24.087 143.914L24.0127 143.841C22.8156 142.62 21.9344 141.125 21.4464 139.485C20.9485 137.812 20.8756 136.041 21.2343 134.332C21.593 132.624 22.3719 131.032 23.5006 129.701C24.6292 128.369 26.0721 127.34 27.6986 126.706L27.7228 126.697C30.1833 125.737 33.1877 124.022 35.4789 121.363C37.1293 119.447 38.4096 117.041 38.8501 114.075C39.177 111.884 38.9862 109.647 38.2929 107.543C37.5992 105.438 36.4201 103.523 34.8532 101.955L23.9467 91.0485L23.8709 90.9717C22.0392 89.1454 20.983 86.5962 20.9863 84.0096L20.9863 84.0007C20.9863 81.4653 21.9515 78.949 23.8781 77.0224L34.5601 66.3404C34.6759 66.2246 34.9153 66.1989 35.0684 66.2217C35.1663 66.2759 35.4053 66.4197 35.6282 66.6467C36.1013 67.1283 36.6281 67.9242 37.056 68.9765L37.0587 68.9832C38.5845 72.7244 41.0119 76.0301 44.1247 78.6059C47.2374 81.1818 50.9389 82.9479 54.8994 83.7469C58.8599 84.5459 62.9566 84.353 66.8245 83.1854C70.6632 82.0267 74.1583 79.9436 77.0036 77.1196L77.0698 77.0542C79.9267 74.1973 82.0328 70.6781 83.2004 66.8102C84.368 62.9423 84.5608 58.8456 83.7618 54.8851C82.9628 50.9245 81.1968 47.2231 78.6209 44.1103C76.045 40.9976 72.7359 38.5689 68.9948 37.043C67.9425 36.6151 67.1432 36.087 66.6616 35.6139C66.3844 35.3416 65.9845 34.9166 66.3554 34.5458L76.9505 23.9507Z" fill="white"/>
</svg>
