<svg width="168" height="168" viewBox="0 0 168 168" fill="none" xmlns="http://www.w3.org/2000/svg">
<path fill-rule="evenodd" clip-rule="evenodd" d="M63 14C43.67 14 28 29.67 28 49C28 68.33 43.67 84 63 84C82.33 84 98 68.33 98 49C98 29.67 82.33 14 63 14ZM42 49C42 37.402 51.402 28 63 28C74.598 28 84 37.402 84 49C84 60.598 74.598 70 63 70C51.402 70 42 60.598 42 49Z" fill="white"/>
<path d="M42 98C32.7174 98 23.815 101.687 17.2513 108.251C10.6875 114.815 7 123.717 7 133V147C7 150.866 10.134 154 14 154C17.866 154 21 150.866 21 147V133C21 127.43 23.2125 122.089 27.1508 118.151C31.089 114.212 36.4305 112 42 112H84C89.5695 112 94.911 114.212 98.8492 118.151C102.788 122.089 105 127.43 105 133V147C105 150.866 108.134 154 112 154C115.866 154 119 150.866 119 147V133C119 123.717 115.313 114.815 108.749 108.251C102.185 101.687 93.2826 98 84 98H42Z" fill="white"/>
<path d="M114.05 51.0503C116.784 48.3166 121.216 48.3166 123.95 51.0503L136.5 63.6005L149.05 51.0503C151.784 48.3166 156.216 48.3166 158.95 51.0503C161.683 53.7839 161.683 58.2161 158.95 60.9497L146.4 73.5L158.95 86.0503C161.683 88.7839 161.683 93.2161 158.95 95.9497C156.216 98.6834 151.784 98.6834 149.05 95.9497L136.5 83.3995L123.95 95.9497C121.216 98.6834 116.784 98.6834 114.05 95.9497C111.317 93.2161 111.317 88.7839 114.05 86.0503L126.601 73.5L114.05 60.9497C111.317 58.2161 111.317 53.7839 114.05 51.0503Z" fill="white"/>
</svg>
