<svg width="793" height="96" viewBox="0 0 793 96" fill="none" xmlns="http://www.w3.org/2000/svg">
<path d="M288.727 91.3636H420.799V73.9211H316.087V64.4345H404.248V48.8278H316.087V39.3414H420.799V23.1227H288.727V91.3636Z" fill="white"/>
<path fill-rule="evenodd" clip-rule="evenodd" d="M140.647 91.0543H167.735V68.4752H220.554L238.499 91.3637H270.665L251.366 66.31C264.171 60.6772 271.004 57.9591 271.004 44.3499C271.004 30.7406 258.355 23.7554 242.901 23.3174C227.446 22.8793 140.647 23.3174 140.647 23.3174V91.0543ZM167.735 52.3917V39.4011H228.003C238.431 39.6891 243.189 40.252 243.239 45.2778C242.808 50.8641 239.022 52.2166 228.003 52.3917H167.735Z" fill="white"/>
<path fill-rule="evenodd" clip-rule="evenodd" d="M0 91.3636H27.2936V68.928H99.0655C126.278 67.6303 130.34 56.8996 129.729 45.2465C130.269 25.3254 119.672 23.6971 98.0547 23.1227H0V91.3636ZM27.2936 52.1017V39.6376L88.6199 39.9492C99.3703 39.8489 102.352 41.1179 102.435 45.5581C102.013 51.0533 96.8237 52.1648 88.099 52.1017H27.2936Z" fill="white"/>
<path d="M433.949 91.3636H460.288V39.107L500.134 91.3636H525.797L564.968 40.0292V91.3636H592.32V23.1227H548.422L513.303 70.1534L478.523 23.4301H433.949V91.3636Z" fill="white"/>
<path d="M608.758 23.1227V91.3636H636.481L636.773 23.1227H608.758Z" fill="white"/>
<path d="M653.496 95.9902H686.685L709.395 73.8489L730.652 95.9902H763.841L723.951 56.3692L713.471 45.0073L686.102 18.4962H653.496L693.095 56.3692L653.496 95.9902Z" fill="white"/>
<path d="M723.534 55.7974L731.252 47.701L739.828 59.8456C740.675 60.7825 741.418 61.1422 743.545 61.2914C745.346 61.3012 746.135 60.9369 747.261 59.8456L780.993 21.0986V32.3757C781.468 36.1525 782.852 37.4584 787.283 37.5805C791.411 37.4684 792.36 36.168 792.428 32.3757L790.141 3.17089C789.953 1.71879 789.409 1.30228 788.426 0.568479C787.483 0.0709652 786.945 0.0667418 785.99 0L756.123 2.01426C753.516 2.80393 752.75 4.25888 752.692 7.50824C752.898 10.2169 752.847 11.868 756.123 12.4239H768.987L744.402 41.0504L736.398 30.0625C735.192 28.9243 734.34 28.5678 732.396 28.6167C730.418 28.6325 729.36 28.7873 727.822 30.0625L713.528 45.0986L723.534 55.7974Z" fill="#9747FF"/>
</svg>
