<svg width="139" height="96" viewBox="0 0 139 96" fill="none" xmlns="http://www.w3.org/2000/svg">
<path d="M0 95.9902H33.1894L55.8988 73.8489L77.156 95.9902H110.345L70.4552 56.3692L59.9753 45.0073L32.6062 18.4962H0L39.5986 56.3692L0 95.9902Z" fill="white"/>
<path d="M70.0378 55.7974L77.7563 47.701L86.3323 59.8456C87.1785 60.7825 87.9218 61.1422 90.0486 61.2914C91.8496 61.3012 92.6386 60.9369 93.7649 59.8456L127.497 21.0986V32.3757C127.972 36.1525 129.356 37.4584 133.787 37.5805C137.914 37.4684 138.864 36.168 138.932 32.3757L136.645 3.17089C136.457 1.71879 135.913 1.30228 134.93 0.568479C133.987 0.0709652 133.449 0.0667417 132.494 0L102.627 2.01426C100.02 2.80393 99.2536 4.25888 99.1964 7.50824C99.4023 10.2169 99.3508 11.868 102.627 12.4239H115.491L90.9062 41.0504L82.9019 30.0625C81.6955 28.9243 80.8437 28.5678 78.8997 28.6167C76.9215 28.6325 75.8638 28.7873 74.3258 30.0625L60.0324 45.0986L70.0378 55.7974Z" fill="#FBCA48"/>
</svg>
