<svg width="793" height="96" viewBox="0 0 793 96" fill="none" xmlns="http://www.w3.org/2000/svg">
<g clip-path="url(#clip0_129_23)">
<path d="M289.299 91.3735H421.371V73.931H316.659V64.4444H404.819V48.8377H316.659V39.3512H421.371V23.1326H289.299V91.3735Z" fill="white"/>
<path fill-rule="evenodd" clip-rule="evenodd" d="M141.219 91.0641H168.306V68.4851H221.126L239.071 91.3735H271.237L251.937 66.3199C264.743 60.6871 271.575 57.969 271.575 44.3597C271.575 30.7505 258.927 23.7653 243.473 23.3272C228.018 22.8892 141.219 23.3272 141.219 23.3272V91.0641ZM168.306 52.4016V39.4109H228.575C239.002 39.6989 243.761 40.2619 243.811 45.2876C243.38 50.874 239.593 52.2265 228.575 52.4016H168.306Z" fill="white"/>
<path fill-rule="evenodd" clip-rule="evenodd" d="M0.571747 91.3735H27.8654V68.9379H99.6373C126.85 67.6401 130.911 56.9095 130.301 45.2563C130.841 25.3352 120.244 23.707 98.6264 23.1326H0.571747V91.3735ZM27.8654 52.1116V39.6475L89.1916 39.9591C99.942 39.8588 102.924 41.1278 103.007 45.5679C102.585 51.0632 97.3955 52.1747 88.6708 52.1116H27.8654Z" fill="white"/>
<path d="M434.521 91.3735H460.859V39.1169L500.705 91.3735H526.369L565.54 40.0391V91.3735H592.892V23.1326H548.994L513.875 70.1633L479.094 23.4399H434.521V91.3735Z" fill="white"/>
<path d="M609.329 23.1326V91.3735H637.053L637.344 23.1326H609.329Z" fill="white"/>
<path d="M654.068 96H687.257L709.967 73.8587L731.224 96H764.413L724.523 56.379L714.043 45.0171L686.674 18.506H654.068L693.666 56.379L654.068 96Z" fill="white"/>
<path d="M724.106 55.8073L731.824 47.7109L740.4 59.8555C741.246 60.7923 741.99 61.1521 744.116 61.3013C745.917 61.3111 746.706 60.9468 747.833 59.8555L781.565 21.1085V32.3856C782.04 36.1624 783.423 37.4683 787.854 37.5904C791.982 37.4783 792.931 36.1779 793 32.3856L790.713 3.18078C790.524 1.72868 789.981 1.31217 788.998 0.578367C788.054 0.0808529 787.517 0.0766294 786.562 0.0098877L756.695 2.02415C754.088 2.81382 753.321 4.26876 753.264 7.51813C753.47 10.2268 753.419 11.8779 756.695 12.4338H769.559L744.974 41.0603L736.97 30.0723C735.763 28.9342 734.911 28.5777 732.968 28.6266C730.989 28.6424 729.932 28.7972 728.394 30.0723L714.1 45.1085L724.106 55.8073Z" fill="#FBCA48"/>
</g>
<defs>
<clipPath id="clip0_129_23">
<rect width="793" height="96" fill="white"/>
</clipPath>
</defs>
</svg>
