<svg width="168" height="168" viewBox="0 0 168 168" fill="none" xmlns="http://www.w3.org/2000/svg">
<path fill-rule="evenodd" clip-rule="evenodd" d="M115.5 42C109.701 42 105 46.701 105 52.5C105 58.299 109.701 63 115.5 63C121.299 63 126 58.299 126 52.5C126 46.701 121.299 42 115.5 42ZM119 52.5C119 54.433 117.433 56 115.5 56C113.567 56 112 54.433 112 52.5C112 50.567 113.567 49 115.5 49C117.433 49 119 50.567 119 52.5Z" fill="#FBCA48"/>
<path fill-rule="evenodd" clip-rule="evenodd" d="M114.664 7.06479C102.852 5.72972 90.9366 8.44277 80.867 14.7601C70.7975 21.0774 63.1698 30.625 59.232 41.841C55.7916 51.6402 55.3456 62.206 57.8956 72.2052L9.05025 121.051C7.7375 122.363 7 124.144 7 126V147C7 150.691 8.2608 154.311 10.9753 157.025C13.6897 159.739 17.3093 161 21 161H49C52.866 161 56 157.866 56 154V140H70C73.866 140 77 136.866 77 133V119H84C85.8565 119 87.637 118.263 88.9497 116.95L95.7951 110.105C105.794 112.655 116.36 112.209 126.159 108.768C137.375 104.83 146.923 97.2028 153.24 87.1332C159.557 77.0636 162.271 65.1482 160.935 53.3363C159.6 41.5243 154.296 30.515 145.891 22.1095C137.485 13.704 126.476 8.39986 114.664 7.06479ZM88.3072 26.6194C95.6916 21.9867 104.43 19.9972 113.092 20.9762C121.754 21.9553 129.827 25.845 135.991 32.009C142.155 38.1731 146.045 46.2465 147.024 54.9086C148.003 63.5707 146.014 72.3087 141.381 79.6931C136.748 87.0774 129.747 92.671 121.521 95.5588C113.296 98.4465 104.335 98.4575 96.1027 95.5899C93.5668 94.7065 90.7491 95.3517 88.8502 97.2505L81.1005 105H70C66.134 105 63 108.134 63 112V126H49C45.134 126 42 129.134 42 133V147H21V128.9L70.7497 79.15C72.6486 77.2512 73.2938 74.4335 72.4104 71.8976C69.5428 63.6655 69.5537 54.7039 72.4415 46.4788C75.3292 38.2537 80.9228 31.2521 88.3072 26.6194Z" fill="#FBCA48"/>
</svg>
