<svg width="168" height="168" viewBox="0 0 168 168" fill="none" xmlns="http://www.w3.org/2000/svg">
<path fill-rule="evenodd" clip-rule="evenodd" d="M84 63C72.402 63 63 72.402 63 84C63 95.598 72.402 105 84 105C95.598 105 105 95.598 105 84C105 72.402 95.598 63 84 63ZM77 84C77 80.134 80.134 77 84 77C87.866 77 91 80.134 91 84C91 87.866 87.866 91 84 91C80.134 91 77 87.866 77 84Z" fill="#FBCA48"/>
<path fill-rule="evenodd" clip-rule="evenodd" d="M35 84C35 56.938 56.938 35 84 35C111.062 35 133 56.938 133 84C133 111.062 111.062 133 84 133C56.938 133 35 111.062 35 84ZM84 49C64.67 49 49 64.67 49 84C49 103.33 64.67 119 84 119C103.33 119 119 103.33 119 84C119 64.67 103.33 49 84 49Z" fill="#FBCA48"/>
<path fill-rule="evenodd" clip-rule="evenodd" d="M7 84C7 41.4741 41.4741 7 84 7C126.526 7 161 41.4741 161 84C161 126.526 126.526 161 84 161C41.4741 161 7 126.526 7 84ZM84 21C49.2061 21 21 49.2061 21 84C21 118.794 49.2061 147 84 147C118.794 147 147 118.794 147 84C147 49.2061 118.794 21 84 21Z" fill="#FBCA48"/>
</svg>
