<svg width="168" height="168" viewBox="0 0 168 168" fill="none" xmlns="http://www.w3.org/2000/svg">
<path d="M136.01 90.86C136.29 88.62 136.5 86.38 136.5 84C136.5 81.62 136.29 79.38 136.01 77.14L150.78 65.59C152.11 64.54 152.46 62.65 151.62 61.11L137.62 36.89C136.99 35.77 135.8 35.14 134.54 35.14C134.12 35.14 133.7 35.21 133.35 35.35L115.92 42.35C112.28 39.55 108.36 37.24 104.09 35.49L101.43 16.94C101.22 15.26 99.75 14 98 14H70C68.25 14 66.78 15.26 66.57 16.94L63.91 35.49C59.64 37.24 55.72 39.62 52.08 42.35L34.65 35.35C34.23 35.21 33.81 35.14 33.39 35.14C32.2 35.14 31.01 35.77 30.38 36.89L16.38 61.11C15.47 62.65 15.89 64.54 17.22 65.59L31.99 77.14C31.71 79.38 31.5 81.69 31.5 84C31.5 86.31 31.71 88.62 31.99 90.86L17.22 102.41C15.89 103.46 15.54 105.35 16.38 106.89L30.38 131.11C31.01 132.23 32.2 132.86 33.46 132.86C33.88 132.86 34.3 132.79 34.65 132.65L52.08 125.65C55.72 128.45 59.64 130.76 63.91 132.51L66.57 151.06C66.78 152.74 68.25 154 70 154H98C99.75 154 101.22 152.74 101.43 151.06L104.09 132.51C108.36 130.76 112.28 128.38 115.92 125.65L133.35 132.65C133.77 132.79 134.19 132.86 134.61 132.86C135.8 132.86 136.99 132.23 137.62 131.11L151.62 106.89C152.46 105.35 152.11 103.46 150.78 102.41L136.01 90.86ZM122.15 78.89C122.43 81.06 122.5 82.53 122.5 84C122.5 85.47 122.36 87.01 122.15 89.11L121.17 97.02L127.4 101.92L134.96 107.8L130.06 116.27L121.17 112.7L113.89 109.76L107.59 114.52C104.58 116.76 101.71 118.44 98.84 119.63L91.42 122.64L90.3 130.55L88.9 140H79.1L77.77 130.55L76.65 122.64L69.23 119.63C66.22 118.37 63.42 116.76 60.62 114.66L54.25 109.76L46.83 112.77L37.94 116.34L33.04 107.87L40.6 101.99L46.83 97.09L45.85 89.18C45.64 87.01 45.5 85.4 45.5 84C45.5 82.6 45.64 80.99 45.85 78.89L46.83 70.98L40.6 66.08L33.04 60.2L37.94 51.73L46.83 55.3L54.11 58.24L60.41 53.48C63.42 51.24 66.29 49.56 69.16 48.37L76.58 45.36L77.7 37.45L79.1 28H88.83L90.16 37.45L91.28 45.36L98.7 48.37C101.71 49.63 104.51 51.24 107.31 53.34L113.68 58.24L121.1 55.23L129.99 51.66L134.89 60.13L127.4 66.08L121.17 70.98L122.15 78.89ZM84 56C68.53 56 56 68.53 56 84C56 99.47 68.53 112 84 112C99.47 112 112 99.47 112 84C112 68.53 99.47 56 84 56ZM84 98C76.3 98 70 91.7 70 84C70 76.3 76.3 70 84 70C91.7 70 98 76.3 98 84C98 91.7 91.7 98 84 98Z" fill="white"/>
</svg>
