<svg width="168" height="168" viewBox="0 0 168 168" fill="none" xmlns="http://www.w3.org/2000/svg">
<path fill-rule="evenodd" clip-rule="evenodd" d="M42 7C38.134 7 35 10.134 35 14V21H31.5C25.0022 21 18.7705 23.5812 14.1759 28.1759C9.58124 32.7705 7 39.0022 7 45.5C7 51.9978 9.58124 58.2295 14.1759 62.8241C18.7705 67.4188 25.0022 70 31.5 70H35.5024C37.0044 80.4075 41.8286 90.1251 49.3518 97.6482C53.3553 101.652 57.9803 104.891 63 107.272V118.956C62.9745 119.024 62.8921 119.188 62.6574 119.456C62.1829 119.996 61.3561 120.616 60.2899 121.108C50.7653 125.47 44.4107 135.535 42.5596 147H28C24.134 147 21 150.134 21 154C21 157.866 24.134 161 28 161H140C143.866 161 147 157.866 147 154C147 150.134 143.866 147 140 147H125.441C123.591 135.532 117.238 125.468 107.709 121.107C106.813 120.695 105.374 119.953 104.995 118.937L104.999 107.273C110.019 104.892 114.644 101.652 118.648 97.6482C126.171 90.1251 130.996 80.4075 132.498 70H136.5C142.998 70 149.229 67.4188 153.824 62.8241C158.419 58.2295 161 51.9978 161 45.5C161 39.0022 158.419 32.7705 153.824 28.1759C149.229 23.5812 142.998 21 136.5 21H133V14C133 10.134 129.866 7 126 7H42ZM119 21H49V63C49 72.2826 52.6875 81.185 59.2513 87.7487C65.815 94.3125 74.7174 98 84 98C93.2826 98 102.185 94.3125 108.749 87.7487C115.313 81.185 119 72.2826 119 63V21ZM133 56V35H136.5C139.285 35 141.955 36.1062 143.925 38.0754C145.894 40.0445 147 42.7152 147 45.5C147 48.2848 145.894 50.9555 143.925 52.9246C141.955 54.8938 139.285 56 136.5 56H133ZM35 56V35H31.5C28.7152 35 26.0445 36.1062 24.0754 38.0754C22.1062 40.0445 21 42.7152 21 45.5C21 48.2848 22.1062 50.9555 24.0754 52.9246C26.0445 54.8938 28.7152 56 31.5 56H35ZM91 111.498C88.6951 111.83 86.3563 112 84 112C81.6437 112 79.3049 111.83 77 111.498V118.999C77 127.051 70.4284 131.854 66.1353 133.829L66.1229 133.835C62.2634 135.601 58.4366 140.293 56.812 147H111.187C109.561 140.292 105.73 135.598 101.871 133.832C97.5778 131.857 91 127.051 91 118.999V111.498Z" fill="black"/>
</svg>
