<svg width="168" height="168" viewBox="0 0 168 168" fill="none" xmlns="http://www.w3.org/2000/svg">
<path fill-rule="evenodd" clip-rule="evenodd" d="M63 14C43.67 14 28 29.67 28 49C28 68.33 43.67 84 63 84C82.33 84 98 68.33 98 49C98 29.67 82.33 14 63 14ZM42 49C42 37.402 51.402 28 63 28C74.598 28 84 37.402 84 49C84 60.598 74.598 70 63 70C51.402 70 42 60.598 42 49Z" fill="#3B1D65"/>
<path d="M42 98C32.7174 98 23.815 101.687 17.2513 108.251C10.6875 114.815 7 123.717 7 133V147C7 150.866 10.134 154 14 154C17.866 154 21 150.866 21 147V133C21 127.43 23.2125 122.089 27.1508 118.151C31.089 114.212 36.4305 112 42 112H84C89.5695 112 94.911 114.212 98.8492 118.151C102.788 122.089 105 127.43 105 133V147C105 150.866 108.134 154 112 154C115.866 154 119 150.866 119 147V133C119 123.717 115.313 114.815 108.749 108.251C102.185 101.687 93.2826 98 84 98H42Z" fill="#3B1D65"/>
<path d="M126.224 104.159C127.19 100.416 131.008 98.1649 134.752 99.1314C142.26 101.07 148.912 105.448 153.664 111.577C158.415 117.706 160.996 125.239 161.002 132.994V146.999C161.002 150.865 157.868 153.999 154.002 153.999C150.136 153.999 147.002 150.865 147.002 146.999V133.004C146.998 128.352 145.449 123.831 142.599 120.154C139.748 116.477 135.757 113.85 131.252 112.687C127.508 111.72 125.257 107.902 126.224 104.159Z" fill="#3B1D65"/>
<path d="M113.738 15.1279C109.993 14.169 106.179 16.4277 105.22 20.1729C104.262 23.9181 106.52 27.7315 110.265 28.6904C114.783 29.847 118.786 32.4741 121.646 36.1575C124.505 39.841 126.057 44.3713 126.057 49.0342C126.057 53.697 124.505 58.2273 121.646 61.9108C118.786 65.5942 114.783 68.2213 110.265 69.3779C106.52 70.3368 104.262 74.1502 105.22 77.8954C106.179 81.6406 109.993 83.8993 113.738 82.9404C121.267 81.0128 127.94 76.6343 132.705 70.4952C137.47 64.3561 140.057 56.8056 140.057 49.0342C140.057 41.2627 137.47 33.7122 132.705 27.5731C127.94 21.434 121.267 17.0555 113.738 15.1279Z" fill="#3B1D65"/>
</svg>
