<svg width="168" height="168" viewBox="0 0 168 168" fill="none" xmlns="http://www.w3.org/2000/svg">
<path d="M70.116 22.5088C83.3675 19.5148 97.2317 20.8846 109.641 26.4139C113.172 27.9874 117.311 26.4002 118.884 22.8689C120.458 19.3376 118.87 15.1994 115.339 13.6259C100.172 6.86791 83.2269 5.19372 67.0307 8.85304C50.8344 12.5124 36.255 21.3091 25.4668 33.9314C14.6785 46.5536 8.25943 62.3251 7.16691 78.8935C6.07439 95.462 10.367 111.94 19.4044 125.869C28.4418 139.799 41.7399 150.434 57.3154 156.188C72.8909 161.943 89.9092 162.508 105.832 157.8C121.755 153.092 135.73 143.363 145.672 130.064C155.614 116.765 160.991 100.604 161 83.9999V77.5599C161 73.6939 157.866 70.5599 154 70.5599C150.134 70.5599 147 73.6939 147 77.5599V83.9959C146.992 97.5814 142.593 110.8 134.459 121.681C126.324 132.562 114.891 140.523 101.863 144.374C88.8348 148.226 74.9107 147.764 62.1672 143.056C49.4236 138.348 38.5433 129.646 31.1491 118.249C23.7548 106.853 20.2427 93.3707 21.1366 79.8147C22.0305 66.2587 27.2824 53.3548 36.1092 43.0275C44.9359 32.7002 56.8646 25.5028 70.116 22.5088Z" fill="white"/>
<path d="M158.952 32.9473C161.685 30.2122 161.682 25.7801 158.947 23.0478C156.212 20.3155 151.78 20.3177 149.048 23.0527L83.9975 88.168L67.9497 72.1203C65.2161 69.3866 60.7839 69.3866 58.0503 72.1203C55.3166 74.8539 55.3166 79.2861 58.0503 82.0198L79.0503 103.02C80.3634 104.333 82.1446 105.07 84.0018 105.07C85.8589 105.07 87.6397 104.331 88.9522 103.017L158.952 32.9473Z" fill="white"/>
</svg>
