<svg width="168" height="168" viewBox="0 0 168 168" fill="none" xmlns="http://www.w3.org/2000/svg">
<path fill-rule="evenodd" clip-rule="evenodd" d="M87.1305 28.739C85.1598 27.7537 82.8402 27.7537 80.8695 28.739L10.8695 63.739C8.49802 64.9248 7 67.3486 7 70C7 72.6514 8.49802 75.0752 10.8695 76.261L35 88.3262V119C35 120.857 35.7375 122.637 37.0503 123.95C49.1601 136.06 66.8606 141.75 84 141.75C101.139 141.75 118.84 136.06 130.95 123.95C132.262 122.637 133 120.857 133 119V88.3262L147 81.3262V112C147 115.866 150.134 119 154 119C157.866 119 161 115.866 161 112V70C161 67.3486 159.502 64.9248 157.13 63.739L87.1305 28.739ZM123.005 77.6713C122.917 77.713 122.83 77.7566 122.744 77.8019L84 97.1738L45.2564 77.802C45.1703 77.7566 45.0831 77.713 44.9949 77.6712L29.6525 70L84 42.8262L138.348 70L123.005 77.6713ZM49 95.3262L80.8695 111.261C82.8402 112.246 85.1598 112.246 87.1305 111.261L119 95.3262V115.955C110.117 123.625 97.2991 127.75 84 127.75C70.7009 127.75 57.8832 123.625 49 115.955V95.3262Z" fill="white"/>
</svg>
