<svg width="168" height="168" viewBox="0 0 168 168" fill="none" xmlns="http://www.w3.org/2000/svg">
<path d="M126 21C129.866 21 133 24.134 133 28V140C133 143.866 129.866 147 126 147C122.134 147 119 143.866 119 140V28C119 24.134 122.134 21 126 21Z" fill="white"/>
<path d="M84 63C87.866 63 91 66.134 91 70V140C91 143.866 87.866 147 84 147C80.134 147 77 143.866 77 140V70C77 66.134 80.134 63 84 63Z" fill="white"/>
<path d="M49 112C49 108.134 45.866 105 42 105C38.134 105 35 108.134 35 112V140C35 143.866 38.134 147 42 147C45.866 147 49 143.866 49 140V112Z" fill="white"/>
</svg>
