<svg width="168" height="168" viewBox="0 0 168 168" fill="none" xmlns="http://www.w3.org/2000/svg">
<path fill-rule="evenodd" clip-rule="evenodd" d="M150.945 113.216L150.965 113.231C153.474 114.954 154.585 118.108 153.7 121.028C152.806 123.981 150.085 126 147.001 126H21.0005C17.9159 126 15.1948 123.981 14.3009 121.028C13.4165 118.108 14.527 114.954 17.0364 113.231L17.0564 113.216C17.1103 113.176 17.2352 113.08 17.4216 112.925C17.7941 112.615 18.4128 112.064 19.2001 111.233C20.7711 109.574 23.0327 106.781 25.3553 102.523C29.9811 94.0424 35.0005 79.4686 35.0005 56C35.0005 43.0044 40.163 30.541 49.3523 21.3518C58.5416 12.1625 71.0049 7 84.0005 7C96.9962 7 109.46 12.1625 118.649 21.3518C127.838 30.541 133.001 43.0044 133.001 56C133.001 79.4686 138.02 94.0424 142.646 102.523C144.968 106.781 147.23 109.574 148.801 111.233C149.588 112.064 150.207 112.615 150.579 112.925C150.766 113.08 150.891 113.176 150.945 113.216ZM59.2518 31.2513C65.8156 24.6875 74.718 21 84.0005 21C93.2831 21 102.186 24.6875 108.749 31.2513C115.313 37.815 119.001 46.7174 119.001 56C119.001 81.5314 124.481 98.4576 130.355 109.227C130.888 110.204 131.423 111.127 131.955 112H36.0458C36.5784 111.127 37.1131 110.204 37.6458 109.227C43.52 98.4576 49.0005 81.5314 49.0005 56C49.0005 46.7174 52.688 37.815 59.2518 31.2513Z" fill="#3B1D65"/>
<path d="M78.2332 143.627C76.3706 140.24 72.1144 139.003 68.7267 140.866C65.3389 142.729 64.1026 146.985 65.9652 150.372C67.7408 153.602 70.3511 156.296 73.5234 158.172C76.6957 160.048 80.3136 161.037 83.9992 161.037C87.6847 161.037 91.3026 160.048 94.4749 158.172C97.6472 156.296 100.258 153.602 102.033 150.372C103.896 146.985 102.659 142.729 99.2717 140.866C95.884 139.003 91.6277 140.24 89.7652 143.627C89.1974 144.66 88.3629 145.521 87.3486 146.121C86.3343 146.721 85.1775 147.037 83.9992 147.037C82.8208 147.037 81.6641 146.721 80.6498 146.121C79.6355 145.521 78.8009 144.66 78.2332 143.627Z" fill="#3B1D65"/>
</svg>
