<svg width="168" height="168" viewBox="0 0 168 168" fill="none" xmlns="http://www.w3.org/2000/svg">
<path fill-rule="evenodd" clip-rule="evenodd" d="M160.979 13.4581C160.855 11.8513 160.179 10.2791 158.95 9.05025C156.945 7.04502 154.025 6.51069 151.533 7.44725L11.6876 56.3932C8.97858 57.3413 7.12285 59.8471 7.00585 62.7149C6.88886 65.5826 8.5343 68.2312 11.1571 69.3969L71.6968 96.3034L98.6033 156.843C99.769 159.466 102.418 161.111 105.285 160.994C108.153 160.877 110.659 159.022 111.607 156.313L160.558 16.454C160.917 15.4928 161.057 14.4686 160.979 13.4581ZM127.36 30.7406L32.9776 63.7744L75.4496 82.6509L127.36 30.7406ZM85.3492 92.5503L137.26 40.6396L104.226 135.023L85.3492 92.5503Z" fill="white"/>
</svg>
