<svg width="168" height="168" viewBox="0 0 168 168" fill="none" xmlns="http://www.w3.org/2000/svg">
<path d="M126 140C126 128.861 121.575 118.178 113.698 110.302C105.822 102.425 95.1391 98 84 98C72.8609 98 62.178 102.425 54.3015 110.302C46.425 118.178 42 128.861 42 140" stroke="white" stroke-width="10" stroke-linecap="round" stroke-linejoin="round"/>
<path d="M84 98C99.464 98 112 85.464 112 70C112 54.536 99.464 42 84 42C68.536 42 56 54.536 56 70C56 85.464 68.536 98 84 98Z" stroke="white" stroke-width="10" stroke-linecap="round" stroke-linejoin="round"/>
<path d="M84 154C122.66 154 154 122.66 154 84C154 45.3401 122.66 14 84 14C45.3401 14 14 45.3401 14 84C14 122.66 45.3401 154 84 154Z" stroke="white" stroke-width="10" stroke-linecap="round" stroke-linejoin="round"/>
</svg>
